# xmcd
#
# Track frame offsets:
#	150
#	12375
#	20350
#	27987
#	37812
#	57750
#	69475
#	91525
#	102875
#	115500
#	127962
#	138612
#	150300
#	159325
#	173300
#	183687
#	193437
#	202400
#	217050
#	233287
#
# Disc length: 3286 seconds
#
# Revision: 1
# Processed by: cddbd v1.5.2PL0 Copyright (c) Steve Scherf et al.
# Submitted via: audiograbber 1.83.01
#
DISCID=000cd414
DTITLE=Country Superstars - Country Superstars
DYEAR=1900
DGENRE=Country
TTITLE0=Johnny Cash - Sixteen Tons
TTITLE1=Willie Nelson - If You've Got The Money Honey
TTITLE2=Jim Reeves  - Blue Boy
TTITLE3=Loretta Lynn - You Ain't Woman Enough
TTITLE4=Jerry Lee Lewis - Thirty Nine And Holding
TTITLE5=Charlie Pride - Shutters And Boards
TTITLE6=Willie Nelson - City Of New Orleans
TTITLE7=Brenda Lee - Thats All You Gotta Do
TTITLE8=Jim Reeves - Four Walls
TTITLE9=Ernest Tubb - Thanks A Lot
TTITLE10=Loretta Lynn - Out Of My Head And Back In My Bed
TTITLE11=Charlie Pride - It's Gonna Take A Little Longer
TTITLE12=Johnny Cash - Get Rhythm
TTITLE13=Brenda Lee - You Don't Have To Say You Love Me
TTITLE14=Merle Haggard - Mama Tried
TTITLE15=Jim Reeves - I'm Getting Better
TTITLE16=Loretta Lynn - We've Come A Long Way Baby
TTITLE17=Jerry Lee Lewis - Carless Hands
TTITLE18=Brenda Lee - You're The One I Want
TTITLE19=Ernest Tubb - Do What You Do Do Well
EXTD=
EXTT0=
EXTT1=
EXTT2=
EXTT3=
EXTT4=
EXTT5=
EXTT6=
EXTT7=
EXTT8=
EXTT9=
EXTT10=
EXTT11=
EXTT12=
EXTT13=
EXTT14=
EXTT15=
EXTT16=
EXTT17=
EXTT18=
EXTT19=
PLAYORDER=
